<?xml version="1.0" encoding="utf-8" ?>
<svg baseProfile="full" height="200mm" version="1.1" viewBox="0,0,200,200" width="200mm" xmlns="http://www.w3.org/2000/svg" xmlns:ev="http://www.w3.org/2001/xml-events" xmlns:xlink="http://www.w3.org/1999/xlink"><defs /><rect fill="#1a1a1a" height="200" width="200" x="0" y="0" /><text alignment-baseline="middle" fill="#e1ed5e" style="dominant-baseline: central; font-size:9.0px; font-family:Arial;" text-anchor="middle" x="100.0" y="100.0">2023</text><line stroke="#e1ed5e" stroke-width="0.3" x1="100.0" x2="100.0" y1="15.0" y2="10.0" /><path d="M 100.0 14.0 a86.0,86.0 0 0,1 42.46469731375804,11.215312516191453" fill="none" id="id1" stroke="none" /><text fill="#e1ed5e" style="font-size:6.75px; font-family:Arial;" text-anchor="middle"><textPath startOffset="22.20632615414155" xlink:href="#id1">January</textPath></text><line stroke="#e1ed5e" stroke-width="0.3" x1="143.23703022742887" x2="145.7803849466894" y1="26.81831364943548" y2="22.513508569990506" /><path d="M 143.74570117128098 25.957352633546492 a86.0,86.0 0 0,1 28.547481713284135,27.462654790039103" fill="none" id="id2" stroke="none" /><text fill="#e1ed5e" style="font-size:6.75px; font-family:Arial;" text-anchor="middle"><textPath startOffset="19.985693538727396" xlink:href="#id2">February</textPath></text><line stroke="#e1ed5e" stroke-width="0.3" x1="172.23445277983987" x2="176.4835382374775" y1="55.19839476539836" y2="52.563006222186495" /><path d="M 173.08426987136738 54.67131705675599 a86.0,86.0 0 0,1 12.851231095245387,41.99856678651699" fill="none" id="id3" stroke="none" /><text fill="#e1ed5e" style="font-size:6.75px; font-family:Arial;" text-anchor="middle"><textPath startOffset="22.20632615414155" xlink:href="#id3">March</textPath></text><line stroke="#e1ed5e" stroke-width="0.3" x1="184.98032266829074" x2="189.97916517819016" y1="98.17113171792111" y2="98.06355123074" /><path d="M 185.9800911702706 98.14961562048488 a86.0,86.0 0 0,1 -9.607161424134198,41.387399972396054" fill="none" id="id4" stroke="none" /><text fill="#e1ed5e" style="font-size:6.75px; font-family:Arial;" text-anchor="middle"><textPath startOffset="21.466115282336823" xlink:href="#id4">April</textPath></text><line stroke="#e1ed5e" stroke-width="0.3" x1="174.80103733775053" x2="179.2010983576182" y1="140.37084112569926" y2="142.7455964860345" /><path d="M 175.68104954172406 140.8457921977663 a86.0,86.0 0 0,1 -30.038265399797805,32.042727171017184" fill="none" id="id5" stroke="none" /><text fill="#e1ed5e" style="font-size:6.75px; font-family:Arial;" text-anchor="middle"><textPath startOffset="22.206326154141568" xlink:href="#id5">May</textPath></text><line stroke="#e1ed5e" stroke-width="0.3" x1="143.8653032363475" x2="146.44561519142675" y1="172.8068346515853" y2="177.08958963109032" /><path d="M 144.38136562736335 173.6633856474863 a86.0,86.0 0 0,1 -40.68145358897372,12.25698825130547" fill="none" id="id6" stroke="none" /><text fill="#e1ed5e" style="font-size:6.75px; font-family:Arial;" text-anchor="middle"><textPath startOffset="21.466115282336833" xlink:href="#id6">June</textPath></text><line stroke="#e1ed5e" stroke-width="0.3" x1="102.19456741930631" x2="102.32365962044197" y1="184.97166512339345" y2="189.96999836594603" /><path d="M 102.22038585953345 185.97133177190398 a86.0,86.0 0 0,1 -42.740103519485714,-10.115201625700543" fill="none" id="id7" stroke="none" /><text fill="#e1ed5e" style="font-size:6.75px; font-family:Arial;" text-anchor="middle"><textPath startOffset="22.20632615414155" xlink:href="#id7">July</textPath></text><line stroke="#e1ed5e" stroke-width="0.3" x1="58.666819895761336" x2="56.23545636021788" y1="174.27360380694188" y2="178.64263932499728" /><path d="M 58.180547188652646 175.14741091055294 a86.0,86.0 0 0,1 -31.652253787137756,-30.449443065178592" fill="none" id="id8" stroke="none" /><text fill="#e1ed5e" style="font-size:6.75px; font-family:Arial;" text-anchor="middle"><textPath startOffset="22.20632615414155" xlink:href="#id8">August</textPath></text><line stroke="#e1ed5e" stroke-width="0.3" x1="26.63291911575756" x2="22.317208475507996" y1="142.92168965132927" y2="145.44649492493687" /><path d="M 25.769776987707644 143.4266507060508 a86.0,86.0 0 0,1 -11.730757126820373,-40.83630448921669" fill="none" id="id9" stroke="none" /><text fill="#e1ed5e" style="font-size:6.75px; font-family:Arial;" text-anchor="middle"><textPath startOffset="21.46611528233685" xlink:href="#id9">September</textPath></text><line stroke="#e1ed5e" stroke-width="0.3" x1="15.007084014347285" x2="10.007500721073583" y1="101.09737516637583" y2="101.16192664675087" /><path d="M 14.007167355692545 101.11028546245083 a86.0,86.0 0 0,1 10.666146001902534,-42.60595125391555" fill="none" id="id10" stroke="none" /><text fill="#e1ed5e" style="font-size:6.75px; font-family:Arial;" text-anchor="middle"><textPath startOffset="22.20632615414155" xlink:href="#id10">October</textPath></text><path d="M 81.26839172434947 90.50648371742162 l -22.503769342251132 -11.405315417991241 a46.228968555870665,46.228968555870665 0 0,0 0.36584849946301956,-0.7067028537239861 l 22.304111409628 11.790990993975564" fill="red" stroke="none" /><path d="M 81.6062741919709 89.86733742301443 l -9.76197518595803 -5.377638096629725 a32.145185105218474,32.145185105218474 0 0,0 0.27115590050618216,-0.4823560906120518 l 9.66796164415942 5.5448776971765605" fill="red" stroke="none" /><line stroke="#e1ed5e" stroke-width="0.3" x1="26.266209847984243" x2="21.928928074336255" y1="57.711370442889674" y2="55.22380399835377" /><path d="M 25.398753493254645 57.213857153982495 a86.0,86.0 0 0,1 29.58750427330803,-30.492523968695096" fill="none" id="id11" stroke="none" /><text fill="#e1ed5e" style="font-size:6.75px; font-family:Arial;" text-anchor="middle"><textPath startOffset="21.46611528233685" xlink:href="#id11">November</textPath></text><path d="M 81.78341655067845 89.55222093294921 l -13.546637583354519 -7.769419384597391 a36.61650624782992,36.61650624782992 0 0,0 0.3182851890589644,-0.5440525617616802 l 13.41089271982523 8.001451358712963" fill="red" stroke="none" /><path d="M 81.96595687620814 89.24020034530311 l -13.920724495614206 -8.305636489436678 a37.21018716663862,37.21018716663862 0 0,0 0.3329145862583025,-0.5472240458121213 l 13.775694111069686 8.544028308455873" fill="red" stroke="none" /><path d="M 82.34701348167596 88.62581576622439 l -9.378748875835392 -6.04292182998819 a32.15696350802186,32.15696350802186 0 0,0 0.3038118931744816,-0.46272635664064565 l 9.273340347302991 6.203466250606503" fill="red" stroke="none" /><path d="M 82.54541684631803 88.32363383020206 l -16.721213052845478 -11.185773082586794 a41.117666003136975,41.117666003136975 0 0,0 0.39859765843061323,-0.5848928793792333 l 16.526190928746125 11.471943985236441" fill="red" stroke="none" /><path d="M 82.95767976084542 87.72973835380427 l -14.755215539272166 -10.623574300459449 a39.18176879535545,39.18176879535545 0 0,0 0.39879089997210077,-0.5439503393917227 l 14.57016202678643 10.875987083522674" fill="red" stroke="none" /><path d="M 83.17141714833178 87.43820079747576 l -15.083006133253978 -11.258802721917599 a39.821735115202216,39.821735115202216 0 0,0 0.41476055103415205,-0.5457762674756342 l 14.886969641995716 11.51676376527426" fill="red" stroke="none" /><path d="M 84.07557802195018 86.31012108654704 l -29.631413341134845 -25.47348099879282 a60.07580953466022,60.07580953466022 0 0,0 0.6808824510188999,-0.7783663439474263 l 29.1885390265381 25.97976289894319" fill="red" stroke="none" /><path d="M 84.31358615837235 86.03803664274999 l -7.828272109407821 -6.967688691986804 a31.480006198823222,31.480006198823222 0 0,0 0.36375350940908474,-0.40166571036722765 l 7.707174959382692 7.101407189623588" fill="red" stroke="none" /><path d="M 84.5562425177563 85.77008943001954 l -11.464927672974907 -10.563808429736175 a36.589695798401934,36.589695798401934 0 0,0 0.4307699276440603,-0.45951532424606195 l 11.281390423360392 10.759593170860288" fill="red" stroke="none" /><path d="M 85.57189188830299 84.74124197986013 l -28.88701907980174 -30.550092267780638 a63.04483331976404,63.04483331976404 0 0,0 0.794941658597185,-0.7388116357943898 l 28.3568695374097 31.042808489649676" fill="red" stroke="none" /><path d="M 85.83668400450813 84.49514656593479 l -8.152221206013714 -8.92439277649057 a33.08732795206851,33.08732795206851 0 0,0 0.4238156032816724,-0.38050583321907117 l 7.997394615136071 9.063397618478922" fill="red" stroke="none" /><path d="M 86.65592168130627 83.78471172551755 l -17.076967505172128 -20.751373331076366 a47.87456630902929,47.87456630902929 0 0,0 0.6408275183174571,-0.5181712865793455 l 16.71723658829017 21.042250714919845" fill="red" stroke="none" /><path d="M 86.93701828274178 83.55741782278169 l -10.39151598388443 -13.079965907413028 a37.70536179142531,37.70536179142531 0 0,0 0.5116571717377091,-0.39935653831285745 l 10.164826256987295 13.256900834949107" fill="red" stroke="none" /><path d="M 87.51073957382395 83.11751280151077 l -37.467781278528136 -50.64746159546771 a84.0,84.0 0 0,0 1.1698187345848732,-0.8499230607333286 l 36.59041722758948 51.284903891017706" fill="red" stroke="none" /><path d="M 88.39885842347998 82.49532879139004 l -5.724761082153709 -8.637948242418283 a31.362771795539974,31.362771795539974 0 0,0 0.45256923889767386,-0.2943636220114248 l 5.575224817471748 8.735210788589242" fill="red" stroke="none" /><path d="M 89.00827224532344 82.1063720568725 l -12.108784878223267 -19.712104983869416 a44.134168541838235,44.134168541838235 0 0,0 0.6507434645950866,-0.3920656562002223 l 11.76767934741053 19.917617249528256" fill="red" stroke="none" /><line stroke="#e1ed5e" stroke-width="0.3" x1="56.762969772571076" x2="54.21961505331055" y1="26.818313649435495" y2="22.513508569990535" /><path d="M 56.25429882871897 25.957352633546506 a86.0,86.0 0 0,1 42.265352541879196,-11.944610805530505" fill="none" id="id12" stroke="none" /><text fill="#e1ed5e" style="font-size:6.75px; font-family:Arial;" text-anchor="middle"><textPath startOffset="22.20632615414155" xlink:href="#id12">December</textPath></text><path d="M 89.63071344664047 81.73862282372117 l -14.460993523582587 -25.467292828580284 a50.286572652083315,50.286572652083315 0 0,0 0.7563960449486465,-0.4209335800813029 l 14.020473389561895 25.712441806221772" fill="red" stroke="none" /><path d="M 90.91171255644093 81.06846463323043 l -6.549562078960181 -13.643193715507133 a36.13385272113504,36.13385272113504 0 0,0 0.5630373295260152,-0.26435357571880913 l 6.313746538134557 13.75391227386595" fill="red" stroke="none" /></svg>