<?xml version="1.0" encoding="utf-8" ?>
<svg baseProfile="full" height="200mm" version="1.1" viewBox="0,0,200,200" width="200mm" xmlns="http://www.w3.org/2000/svg" xmlns:ev="http://www.w3.org/2001/xml-events" xmlns:xlink="http://www.w3.org/1999/xlink"><defs /><rect fill="#1a1a1a" height="200" width="200" x="0" y="0" /><text alignment-baseline="middle" fill="#e1ed5e" style="dominant-baseline: central; font-size:9.0px; font-family:Arial;" text-anchor="middle" x="100.0" y="100.0">2024</text><line stroke="#e1ed5e" stroke-width="0.3" x1="100.0" x2="100.0" y1="15.0" y2="10.0" /><path d="M 100.0 14.0 a86.0,86.0 0 0,1 42.35913384403234,11.155469271406648" fill="none" id="id13" stroke="none" /><text fill="#e1ed5e" style="font-size:6.75px; font-family:Arial;" text-anchor="middle"><textPath startOffset="22.145653131862478" xlink:href="#id13">January</textPath></text><path d="M 102.87502721639298 79.19773525538626 l 1.011446977763219 -7.318326479346262 a28.387890595232648,28.387890595232648 0 0,0 0.4821546609559658,0.0708601312528974 l -1.1369267443268667 7.299885274794483" fill="#ff4d07" stroke="none" /><path d="M 103.94208987418118 79.37332000966035 l 0.5591011490270802 -2.925453465367332 a23.97840092547547,23.97840092547547 0 0,0 0.40364042850015874,0.08073939030953463 l -0.6092380630581958 2.9154246783949382" fill="#ff0d01" stroke="none" /><path d="M 108.73861861582097 80.90454125486305 l 4.25026292349313 -9.287591538164808 a31.213916560194278,31.213916560194278 0 0,0 0.48531885910364575,0.22715373124627702 l -4.409070496468281 9.213261575347998" fill="#ff750a" stroke="none" /><path d="M 110.34350942703115 81.72400993836675 l 8.046792021844746 -14.21791047388016 a37.33706950729216,37.33706950729216 0 0,0 0.5550911584855474,0.32048202977641205 l -8.289675648190691 14.077681546827577" fill="#ffc612" stroke="none" /><line stroke="#e1ed5e" stroke-width="0.3" x1="143.13028292997686" x2="145.6673583964461" y1="26.7553504044142" y2="22.446841604673864" /><path d="M 143.63769802327073 25.89364864446614 a86.0,86.0 0 0,1 29.32050498858742,28.57503671076993" fill="none" id="id14" stroke="none" /><text fill="#e1ed5e" style="font-size:6.75px; font-family:Arial;" text-anchor="middle"><textPath startOffset="20.669276256404974" xlink:href="#id14">February</textPath></text><path d="M 113.59037401385872 83.9905735841838 l 5.392428624509811 -6.352267360603647 a29.33244184444291,29.33244184444291 0 0,0 0.3810710497060268,0.3291600966562068 l -5.500679153978697 6.25876313148272" fill="#ff5a08" stroke="none" /><line stroke="#e1ed5e" stroke-width="0.3" x1="172.87174338648825" x2="177.1583165268699" y1="56.24261187166439" y2="53.66864786411523" /><path d="M 173.72905801456457 55.72781907015455 a86.0,86.0 0 0,1 12.242430191666344,42.057860355516425" fill="none" id="id15" stroke="none" /><text fill="#e1ed5e" style="font-size:6.75px; font-family:Arial;" text-anchor="middle"><textPath startOffset="22.145653131862474" xlink:href="#id15">March</textPath></text><path d="M 118.36410011445183 89.81374322990088 l 6.943324852934733 -3.8513452523897374 a28.939938303695193,28.939938303695193 0 0,0 0.23724499813458283,0.43650407510660194 l -7.008415200684658 3.7315863438085324" fill="#ff5507" stroke="none" /><path d="M 119.71291397450082 92.76114493625339 l 9.786249746086105 -3.593646460446151 a31.42520882167103,31.42520882167103 0 0,0 0.18160752375864625,0.5079885658755883 l -9.846497439888694 3.425122938189646" fill="#ff770b" stroke="none" /><path d="M 120.26092885502905 94.47779374421319 l 26.052218249342733 -7.100647932927036 a48.002542042903436,48.002542042903436 0 0,0 0.20986372893579655,0.7968867617057394 l -26.17027145908326 6.652380666848498" fill="#b5ff1f" stroke="none" /><path d="M 120.43855184770803 95.1765574152323 l 7.707813845535778 -1.819023080257447 a28.919547919164472,28.919547919164472 0 0,0 0.10987932441009117,0.484148577446824 l -7.737904031503535 1.6864401688715969" fill="#ff5507" stroke="none" /><path d="M 120.7213421655516 96.59031103205396 l 17.022076455219455 -2.800976203046586 a38.2509870597995,38.2509870597995 0 0,0 0.10105274696743823,0.6488311258803855 l -17.067650694325156 2.5083568952347597" fill="#ffd213" stroke="none" /><line stroke="#e1ed5e" stroke-width="0.3" x1="184.99686870605535" x2="189.99668451229388" y1="99.2704041080226" y2="99.22748670261217" /><path d="M 185.99683186730306 99.26182062694052 a86.0,86.0 0 0,1 -10.086455211305974,41.156179273409016" fill="none" id="id16" stroke="none" /><text fill="#e1ed5e" style="font-size:6.75px; font-family:Arial;" text-anchor="middle"><textPath startOffset="21.40746469413373" xlink:href="#id16">April</textPath></text><path d="M 119.83427380445688 106.89939002012753 l 45.13318020074995 15.699662923060988 a68.7858072123,68.7858072123 0 0,0 -0.3975158984130872,1.1119227164617593 l -44.85702413229291 -16.472120595903668" fill="#3aff91" stroke="none" /><path d="M 118.70294669586154 109.54985784667822 l 9.450508010617778 4.825496727757006 a31.611197874337485,31.611197874337485 0 0,0 -0.25092055312801403,0.48117324573804426 l -9.366279388514814 -4.987016216599553" fill="#ff7a0b" stroke="none" /><line stroke="#e1ed5e" stroke-width="0.3" x1="174.33088141563837" x2="178.70328620479359" y1="141.23008692659167" y2="143.65538615756765" /><path d="M 175.20536237346943 141.71514677278685 a86.0,86.0 0 0,1 -30.301960400862466,31.631185727798858" fill="none" id="id17" stroke="none" /><text fill="#e1ed5e" style="font-size:6.75px; font-family:Arial;" text-anchor="middle"><textPath startOffset="22.145653131862474" xlink:href="#id17">May</textPath></text><path d="M 116.1254893667686 113.45245675266167 l 18.289964431592367 15.258138833960965 a44.81876570238982,44.81876570238982 0 0,0 -0.4979267473937344,0.5865564564108213 l -18.025343120691517 -15.569862072821344" fill="#daff1b" stroke="none" /><path d="M 115.89218393027572 113.72728997021213 l 7.536208796609152 6.509597666437426 a30.958378623298913,30.958378623298913 0 0,0 -0.3508453138155323,0.399197563336127 l -7.423352418835035 -6.638007507584846" fill="#ff710a" stroke="none" /><path d="M 113.86319453409587 115.77377054828091 l 4.178611729058421 4.754493090493271 a27.329770969772355,27.329770969772355 0 0,0 -0.35505344447310955,0.30668670892487043 l -4.096378804822455 -4.825523931882858" fill="#ff3e05" stroke="none" /><path d="M 113.59037401385872 116.0094264158162 l 6.4505239383946025 7.5987009798171075 a30.9674227190621,30.9674227190621 0 0,0 -0.4082179720711631,0.3405499510770541 l -6.319131632161544 -7.708313114806032" fill="#ff710a" stroke="none" /><path d="M 113.31354834802062 116.24036423190432 l 1.32017170969426 1.6103948289096213 a23.08236040301767,23.08236040301767 0 0,0 -0.3085883286442683,0.24857691373419175 l -1.2923326106947393 -1.6328200364372167" fill="#ff0000" stroke="none" /><path d="M 111.5731344415666 117.5232005979908 l 5.326708460671006 8.065315524902662 a30.66556452263498,30.66556452263498 0 0,0 -0.44175113633556173,0.2863377494868969 l -5.187471692078435 -8.155567116093453" fill="#ff6d0a" stroke="none" /><line stroke="#e1ed5e" stroke-width="0.3" x1="143.1302829299769" x2="145.66735839644613" y1="173.24464959558577" y2="177.55315839532614" /><path d="M 143.63769802327073 174.10635135553383 a86.0,86.0 0 0,1 -40.68552437913181,11.842963189579606" fill="none" id="id18" stroke="none" /><text fill="#e1ed5e" style="font-size:6.75px; font-family:Arial;" text-anchor="middle"><textPath startOffset="21.407464694133747" xlink:href="#id18">June</textPath></text><path d="M 110.02825361518725 118.45085714620011 l 3.907054647047523 7.188540489831345 a29.181698502692477,29.181698502692477 0 0,0 -0.44218775418578693,0.23544007277962906 l -3.7830780770751824 -7.254551030333542" fill="#ff5808" stroke="none" /><path d="M 109.71004243097381 118.62028667847754 l 4.825824468121452 9.254154726430073 a31.43685592014318,31.43685592014318 0 0,0 -0.48064374623191375,0.2454201215482951 l -4.666253500175955 -9.335632799651206" fill="#ff780b" stroke="none" /><path d="M 109.06512990194946 118.94263497670748 l 2.7590274260787395 5.7653061774321746 a27.391477736595213,27.391477736595213 0 0,0 -0.42588698213027176,0.1993366119313482 l -2.6596517300769613 -5.811819020934056" fill="#ff3f05" stroke="none" /><line stroke="#e1ed5e" stroke-width="0.3" x1="101.45913802915013" x2="101.54496967792366" y1="184.9874750549273" y2="189.98673829345242" /><path d="M 101.47630435890484 185.9873277026323 a86.0,86.0 0 0,1 -42.54439059252881,-10.42667462771756" fill="none" id="id19" stroke="none" /><text fill="#e1ed5e" style="font-size:6.75px; font-family:Arial;" text-anchor="middle"><textPath startOffset="22.145653131862474" xlink:href="#id19">July</textPath></text><path d="M 95.00130118170881 120.39639698878247 l -0.7624362883628036 3.1110002385416133 a24.203065965293007,24.203065965293007 0 0,0 -0.4026868159995413,-0.10236141393253975 l 0.8157283975877236 -3.0974535927738103" fill="#ff1101" stroke="none" /><path d="M 94.6519064749342 120.30758222061772 l -0.97184318189394 3.690246857007813 a24.816071413882316,24.816071413882316 0 0,0 -0.411023390165767,-0.11202625272950799 l 1.0350479729944022 -3.67302011013416" fill="#ff1a02" stroke="none" /><line stroke="#e1ed5e" stroke-width="0.3" x1="58.13341422392154" x2="55.67067388415222" y1="173.97424548756322" y2="178.32567169271397" /><path d="M 57.64086615596768 174.84453072859336 a86.0,86.0 0 0,1 -31.369924170532247,-30.572349798747897" fill="none" id="id20" stroke="none" /><text fill="#e1ed5e" style="font-size:6.75px; font-family:Arial;" text-anchor="middle"><textPath startOffset="22.145653131862474" xlink:href="#id20">August</textPath></text><path d="M 86.13680546590413 115.77377054828092 l -3.4638250492756004 3.941197060481455 a26.247010409894074,26.247010409894074 0 0,0 -0.3358804589747423,-0.30034637755690213 l 3.5309705350737137 -3.8811551530411705" fill="#ff2e04" stroke="none" /><path d="M 85.86807049272751 115.53346607816431 l -5.250342548007269 5.771046184899505 a28.801991472672768,28.801991472672768 0 0,0 -0.362864260501819,-0.3358617422716266 l 5.348636579823055 -5.680066696495501" fill="#ff5307" stroke="none" /><path d="M 84.58840730492382 114.26474011684316 l -5.970998491639818 5.526667062030309 a29.136146004202217,29.136146004202217 0 0,0 -0.3365950480583873,-0.3699769205898166 l 6.064991240540086 -5.4233525658828174" fill="#ff5808" stroke="none" /><path d="M 82.98947788004972 112.3143062007846 l -6.404152769060755 4.636112730621302 a28.906118765898817,28.906118765898817 0 0,0 -0.28752627477600146,-0.4044417133743257 l 6.482794142366718 -4.525493790537472" fill="#ff5407" stroke="none" /><path d="M 82.78059297857968 112.02048342749411 l -6.66318680085345 4.651421876161091 a29.126117388587097,29.126117388587097 0 0,0 -0.282676269072175,-0.4124331244589522 l 6.74205280674095 -4.536354016632088" fill="#ff5708" stroke="none" /><path d="M 82.576782715395 111.72311816256416 l -6.667397628498022 4.4861226809555 a29.036136375465787,29.036136375465787 0 0,0 -0.27470336599856965,-0.41593590843005873 l 6.743425433417318 -4.3710068941863796" fill="#ff5608" stroke="none" /><path d="M 82.18462484594161 111.11811171558189 l -6.823853677877261 4.258589385031321 a29.04366599054066,29.04366599054066 0 0,0 -0.26033087471794303,-0.42523091922698836 l 6.895952517050608 -4.140821349679776" fill="#ff5608" stroke="none" /><line stroke="#e1ed5e" stroke-width="0.3" x1="26.387840678322732" x2="22.057713659400548" y1="142.50000000000003" y2="145.00000000000006" /><path d="M 25.521815274538298 143.00000000000003 a86.0,86.0 0 0,1 -11.493303480769221,-40.785679425670985" fill="none" id="id21" stroke="none" /><text fill="#e1ed5e" style="font-size:6.75px; font-family:Arial;" text-anchor="middle"><textPath startOffset="21.40746469413373" xlink:href="#id21">September</textPath></text><path d="M 81.81346652052679 110.50000000000001 l -9.098675008879098 5.253122465645274 a31.50624493129054,31.50624493129054 0 0,0 -0.266402756821977,-0.47070814508529873 l 9.187511130722452 -5.096157550460854" fill="#ff790b" stroke="none" /><path d="M 81.63589988554817 110.18625677009913 l -8.98471488369924 4.983669890770671 a31.274340228040963,31.274340228040963 0 0,0 -0.2563820527604583,-0.4717141001668218 l 9.068942286075028 -4.8287009571292625" fill="#ff750a" stroke="none" /><path d="M 81.4637452351635 109.86951160357371 l -9.526159176552778 5.072143198464892 a31.792328075200196,31.792328075200196 0 0,0 -0.25235831231605027,-0.48393033855675865 l 9.611825557843778 -4.907866616803631" fill="#ff7c0b" stroke="none" /><path d="M 81.29705330413844 109.54985784667822 l -7.187562072747552 3.670020407752281 a29.07032207182076,29.07032207182076 0 0,0 -0.22312176354756322,-0.44639299043913944 l 7.249503749506852 -3.546095561149389" fill="#ff5708" stroke="none" /><path d="M 81.1358732173502 109.22738970284198 l -9.133312357189753 4.46756075002025 a31.167423157767978,31.167423157767978 0 0,0 -0.23096654853758458,-0.48263125494060394 l 9.20865816368725 -4.3101169930145415" fill="#ff740a" stroke="none" /><path d="M 80.68587082218212 108.24405325689762 l -7.533003643349804 3.2153913152607356 a29.190536319495543,29.190536319495543 0 0,0 -0.19276061769681382,-0.46255531043341275 l 7.587090105583104 -3.0856034953860414" fill="#ff5808" stroke="none" /><path d="M 80.5471966667186 107.91128576633889 l -7.473961867561653 3.039595225837617 a29.068410322653435,29.068410322653435 0 0,0 -0.18401871356771116,-0.4638473681114221 l 7.525039256095488 -2.9108468405126295" fill="#ff5708" stroke="none" /><path d="M 80.28708602549918 107.23885506374661 l -10.539576490985718 3.8702784758359705 a32.22772141130417,32.22772141130417 0 0,0 -0.1862452757308116,-0.5209611835538991 l 10.604461936760472 -3.68878233590115" fill="#ff820c" stroke="none" /><path d="M 80.16572619554312 106.89939002012753 l -9.873513801476447 3.4345206311607313 a31.453813024624775,31.453813024624775 0 0,0 -0.17301780721338633,-0.5114964037767699 l 9.9310170302622 -3.2645225529098" fill="#ff780b" stroke="none" /><path d="M 79.94057633289273 106.21446072829308 l -5.8629299641776464 1.8163506898186461 a27.13783981489064,27.13783981489064 0 0,0 -0.1340398387024988,-0.44617502894572475 l 5.893246122883775 -1.715438057282198" fill="#ff3b05" stroke="none" /><path d="M 79.0935383218832 101.97986365728391 l -5.05582264515223 0.4787916610149012 a26.07844307577544,26.07844307577544 0 0,0 -0.03838048576930499,-0.44603942238240196 l 5.063296753619277 -0.39193119125683723" fill="#ff2c04" stroke="none" /><path d="M 79.03789590574601 101.26102812881392 l -9.419278965213552 0.5666404324141995 a30.43630741361053,30.43630741361053 0 0,0 -0.026897594686083093,-0.5218061511598434 l 9.427618149356206 -0.4048624878776253" fill="#ff6a09" stroke="none" /><path d="M 79.01933749520258 100.90099992219065 l -6.592414468674853 0.2831066426985502 a27.598490577240646,27.598490577240646 0 0,0 -0.016263807586090022,-0.4735030124983796 l 6.596302963257791 -0.1698973656360507" fill="#ff4206" stroke="none" /><line stroke="#e1ed5e" stroke-width="0.3" x1="15.003131293944662" x2="10.003315487706104" y1="100.72959589197737" y2="100.7725132973878" /><path d="M 14.003168132696942 100.73817937305945 a86.0,86.0 0 0,1 10.791469493833604,-42.45332614584628" fill="none" id="id22" stroke="none" /><text fill="#e1ed5e" style="font-size:6.75px; font-family:Arial;" text-anchor="middle"><textPath startOffset="22.145653131862435" xlink:href="#id22">October</textPath></text><path d="M 79.00696218219943 99.45929381324524 l -11.036169636079926 -0.28425258183661245 a32.03982969826135,32.03982969826135 0 0,0 0.018881091480170968,-0.5497023773674016 l 11.029663857602904 0.4736612237681525" fill="#ff800b" stroke="none" /><path d="M 79.13060592940154 97.66154086499901 l -18.480846216566146 -2.070817365922609 a39.59650401132895,39.59650401132895 0 0,0 0.08148944260858629,-0.6748494836848168 l 18.44257468769789 2.387760526530862" fill="#ffe315" stroke="none" /><path d="M 79.17382384314186 97.30363454192245 l -6.28639488231823 -0.8138996755262038 a27.338863722960014,27.338863722960014 0 0,0 0.06425346837514195,-0.4649060893330508 l 6.2714968973878795 0.9216940730593215" fill="#ff3e05" stroke="none" /><path d="M 79.22317932658666 96.9465228501225 l -15.731566604143795 -2.3119985445606317 a36.90055109392951,36.90055109392951 0 0,0 0.09748511971270614,-0.6259243996619073 l 15.689559992292823 2.581711126153989" fill="#ffc111" stroke="none" /><path d="M 79.2786578344484 96.59031103205396 l -5.37919859094294 -0.8851450811145257 a26.451537333213793,26.451537333213793 0 0,0 0.07757251210842614,-0.4474176357485041 l 5.363211261342279 0.9773557497836224" fill="#ff3104" stroke="none" /><path d="M 79.34024301695615 96.23510406497455 l -3.7341554563237085 -0.6804875154051752 a24.795652806911406,24.795652806911406 0 0,0 0.07990541717752286,-0.41809890748818207 l 3.7219237468640265 0.7444889879266717" fill="#ff1902" stroke="none" /><path d="M 79.407916724674 95.88100663000787 l -9.85552841352837 -1.97138170287677 a31.05076047512338,31.05076047512338 0 0,0 0.1090359122895176,-0.5217763117499188 l 9.820234790414485 2.140274465912098" fill="#ff720a" stroke="none" /><path d="M 79.48165901384962 95.52812308129327 l -10.54479178392491 -2.2981882903169977 a31.792326124801846,31.792326124801846 0 0,0 0.1207943957417039,-0.5322423956997253 l 10.503786526625545 2.478865019955731" fill="#ff7c0b" stroke="none" /><path d="M 79.56144815229197 95.17655741523228 l -7.98749788660597 -1.8850277524098549 a29.20691489634748,29.20691489634748 0 0,0 0.11934845762302634,-0.48698243486297493 l 7.953961902466646 2.0218660118809475" fill="#ff5908" stroke="none" /><path d="M 80.83023694016515 91.42560881287825 l -57.50928917950456 -25.72317356136523 a84.0,84.0 0 0,0 0.600062140579813,-1.3112440711413145 l 57.05924257406971 26.706606614721213" fill="#4dd2ff" stroke="none" /><path d="M 81.29705330413844 90.45014215332179 l -2.404895498513482 -1.2279567770998312 a23.70025928480874,23.70025928480874 0 0,0 0.18812580885616087,-0.36075604379937565 l 2.383461620682381 1.2690590640036934" fill="#ff0901" stroke="none" /><line stroke="#e1ed5e" stroke-width="0.3" x1="26.387840678322718" x2="22.05771365940052" y1="57.49999999999999" y2="54.99999999999999" /><path d="M 25.521815274538284 56.99999999999999 a86.0,86.0 0 0,1 29.574782752854787,-30.34633250058573" fill="none" id="id23" stroke="none" /><text fill="#e1ed5e" style="font-size:6.75px; font-family:Arial;" text-anchor="middle"><textPath startOffset="21.40746469413373" xlink:href="#id23">November</textPath></text><path d="M 81.81346652052679 89.5 l -3.0877350579274223 -1.7827046668806426 a24.565409333761284,24.565409333761284 0 0,0 0.21398377088420192,-0.3633912242820526 l 3.056677576913441 1.835447059456268" fill="#ff1602" stroke="none" /><path d="M 81.99639281039701 89.18935116829357 l -18.719517169149917 -11.240532204659905 a42.83506096373662,42.83506096373662 0 0,0 0.38394908180388,-0.6271519702329272 l 18.523800122890645 11.560221291017374" fill="#f2ff19" stroke="none" /><path d="M 82.18462484594161 88.88188828441811 l -7.9989052986703495 -4.991908502848326 a30.42876643458231,30.42876643458231 0 0,0 0.28035371289236305,-0.44076260218078867 l 7.912033894152097 5.128484779707787" fill="#ff6a09" stroke="none" /><path d="M 82.37810715431573 88.57770195909679 l -6.224813888592365 -4.034849156517769 a28.418107283092134,28.418107283092134 0 0,0 0.2688563528228213,-0.40708278525111385 l 6.154633096848815 4.141111820107944" fill="#ff4d07" stroke="none" /><path d="M 82.576782715395 88.27688183743585 l -40.52547600555071 -27.267348851064956 a69.84488221750708,69.84488221750708 0 0,0 0.6778620869930265,-0.9890210430767244 l 40.05142418174236 27.959004629211716" fill="#3bff9c" stroke="none" /><path d="M 82.78059297857968 87.97951657250589 l -10.182038115681062 -7.107853381675988 a33.41754725719152,33.41754725719152 0 0,0 0.33240100315183074,-0.46756363865112743 l 10.058522013999257 7.281594247036636" fill="#ff930d" stroke="none" /><path d="M 82.98947788004972 87.6856937992154 l -11.289979215726195 -8.173074293815539 a34.93781812565216,34.93781812565216 0 0,0 0.3558632732011832,-0.4827968756179144 l 11.148013922941193 8.365677478702317" fill="#ffa70f" stroke="none" /><path d="M 83.42222388311158 87.10902102172516 l -6.69823891741305 -5.2085910961162805 a29.485035403655576,29.485035403655576 0 0,0 0.3141329625485612,-0.39689673626585326 l 6.6078395242229275 5.322807776296817" fill="#ff5d08" stroke="none" /><path d="M 83.64595745247003 86.82634096563983 l -8.245048921928975 -6.641627775116446 a31.58735336277204,31.58735336277204 0 0,0 0.34378048013785284,-0.41935628784401346 l 8.129821622552493 6.782186344658952" fill="#ff7a0b" stroke="none" /><path d="M 83.8745106332314 86.54754324733833 l -7.697556394732529 -6.421575317565964 a31.02442038270842,31.02442038270842 0 0,0 0.34467456853936007,-0.40602577506749105 l 7.586187262686054 6.552767875083011" fill="#ff720a" stroke="none" /><path d="M 84.10781606972428 86.27271002978789 l -4.496915050953723 -3.8843281166820707 a26.942242833605928,26.942242833605928 0 0,0 0.30533122412091,-0.34741088416985577 l 4.42957276287422 3.960951278663227" fill="#ff3805" stroke="none" /><path d="M 84.34580500576568 86.00192230759919 l -19.39500659066886 -17.343134488921578 a47.01827424240335,47.01827424240335 0 0,0 0.5431781635073681,-0.5970479525035338 l 19.094430726319626 17.67352001698277" fill="#c0ff1e" stroke="none" /><path d="M 85.08716467003674 85.21462403516908 l -19.128899255690424 -18.965405372678664 a47.93698920971649,47.93698920971649 0 0,0 0.5843931696347406,-0.5793983862323062 l 18.80051416592571 19.290983769139643" fill="#b6ff1f" stroke="none" /><path d="M 85.60350026404147 84.71141617570332 l -5.897637718011473 -6.263086880204693 a29.6028127912854,29.6028127912854 0 0,0 0.37295347380669563,-0.34520016748340987 l 5.789254472890824 6.363404793820468" fill="#ff5e08" stroke="none" /><path d="M 85.86807049272753 84.46653392183569 l -12.259172898721012 -13.474978506695603 a39.21708994094952,39.21708994094952 0 0,0 0.5018573149212237,-0.4487639056083277 l 12.026050556976395 13.683437942187332" fill="#ffdf14" stroke="none" /><path d="M 86.13680546590413 84.22622945171909 l -11.819419139449696 -13.44832931984809 a38.904084179009985,38.904084179009985 0 0,0 0.5054205945270207,-0.4365702718033582 l 11.586819065159828 13.64924372411616" fill="#ffdb14" stroke="none" /><path d="M 86.40962598614128 83.9905735841838 l -5.017784806122753 -5.910937884572178 a28.753537968942112,28.753537968942112 0 0,0 0.3790341568311062,-0.3162037744454417 l 4.915576315129738 5.996203842929502" fill="#ff5207" stroke="none" /><path d="M 86.96720088162412 83.53348406188908 l -17.93418670562827 -22.65925903890448 a49.897700133133576,49.897700133133576 0 0,0 0.6762090115934497,-0.5258242174287089 l 17.542567749399577 22.963784307953993" fill="#a0ff22" stroke="none" /><path d="M 87.25179093698888 83.31218511350988 l -16.275920738226827 -21.305702710413563 a47.811164910566006,47.811164910566006 0 0,0 0.6564860237455631,-0.4926393509995019 l 15.90778172557051 21.581961088677065" fill="#b7ff1f" stroke="none" /><path d="M 87.83215693770416 82.88440491214696 l -11.77367204647792 -16.561144190716437 a41.319715804206425,41.319715804206425 0 0,0 0.5816338487156364,-0.40602559836461116 l 11.487643106588518 16.760814604886175" fill="#fff917" stroke="none" /><path d="M 88.12776184653039 82.6780497279521 l -13.039609525379648 -19.02517999098077 a44.06488435400418,44.06488435400418 0 0,0 0.6276176416599785,-0.42228915899424363 l 12.71109559562268 19.246218824032123" fill="#e3ff1b" stroke="none" /><path d="M 89.03521579738668 82.08984904055464 l -11.432992025306717 -18.67493325063111 a42.89672209638361,42.89672209638361 0 0,0 0.6313319833833849,-0.3790967163804806 l 11.110727285365899 18.868443967547513" fill="#f2ff19" stroke="none" /><line stroke="#e1ed5e" stroke-width="0.3" x1="56.869717070023135" x2="54.33264160355391" y1="26.7553504044142" y2="22.446841604673864" /><path d="M 56.362301976729285 25.89364864446614 a86.0,86.0 0 0,1 42.16139366436587,-11.88097634709845" fill="none" id="id24" stroke="none" /><text fill="#e1ed5e" style="font-size:6.75px; font-family:Arial;" text-anchor="middle"><textPath startOffset="22.145653131862474" xlink:href="#id24">December</textPath></text><path d="M 89.97174638481275 81.54914285379989 l -6.305608234630985 -11.601608936264112 a34.20446989161812,34.20446989161812 0 0,0 0.5182973747430806,-0.2759641588349575 l 6.105522044101343 11.708143562821645" fill="#ff9d0e" stroke="none" /><path d="M 90.61103034731259 81.2157712731953 l -7.778622842474887 -15.562456377817075 a38.39819018854925,38.39819018854925 0 0,0 0.5921362066403841,-0.28964349099152537 l 7.51032638657245 15.693693618905813" fill="#ffd413" stroke="none" /><path d="M 91.5904679813234 80.7573450057729 l -23.281067358636466 -53.27163819397686 a79.13669695835276,79.13669695835276 0 0,0 1.2494739513455524,-0.5333261315156409 l 22.363158332120484 53.66343897515191" fill="#47fffe" stroke="none" /><path d="M 93.61358852112211 79.99465700312896 l -5.103923468427868 -15.98796757042335 a37.782882404535805,37.782882404535805 0 0,0 0.6195661653862904,-0.19194318178172692 l 4.828716670169961 16.07322734001172" fill="#ffcc13" stroke="none" /><path d="M 96.05791012581881 79.37332000966035 l -2.978400059889377 -15.584247665410523 a36.866305247712916,36.866305247712916 0 0,0 0.6226284749366118,-0.11346364897921542 l 2.7104368514017265 15.6330794883211" fill="#ffc011" stroke="none" /><path d="M 99.63950707515114 79.00309439819443 l -0.04589223275966271 -2.6729924852609246 a23.673386414884508,23.673386414884508 0 0,0 0.40638515760851424,-0.003488327818018027 l 6.547908231744661e-16 2.673386414884508" fill="#ff0901" stroke="none" /></svg>