<?xml version="1.0" encoding="utf-8" ?>
<svg baseProfile="full" height="200mm" version="1.1" viewBox="0,0,200,200" width="200mm" xmlns="http://www.w3.org/2000/svg" xmlns:ev="http://www.w3.org/2001/xml-events" xmlns:xlink="http://www.w3.org/1999/xlink"><defs /><rect fill="#1a1a1a" height="200" width="200" x="0" y="0" /><text alignment-baseline="middle" fill="#e1ed5e" style="dominant-baseline: central; font-size:9.0px; font-family:Arial;" text-anchor="middle" x="100.0" y="100.0">2024</text><line stroke="#e1ed5e" stroke-width="0.3" x1="100.0" x2="100.0" y1="15.0" y2="10.0" /><path d="M 100.0 14.0 a86.0,86.0 0 0,1 42.35913384403234,11.155469271406648" fill="none" id="id1" stroke="none" /><text fill="#e1ed5e" style="font-size:6.75px; font-family:Arial;" text-anchor="middle"><textPath startOffset="22.145653131862478" xlink:href="#id1">January</textPath></text><line stroke="#e1ed5e" stroke-width="0.3" x1="143.13028292997686" x2="145.6673583964461" y1="26.7553504044142" y2="22.446841604673864" /><path d="M 143.63769802327073 25.89364864446614 a86.0,86.0 0 0,1 29.32050498858742,28.57503671076993" fill="none" id="id2" stroke="none" /><text fill="#e1ed5e" style="font-size:6.75px; font-family:Arial;" text-anchor="middle"><textPath startOffset="20.669276256404974" xlink:href="#id2">February</textPath></text><line stroke="#e1ed5e" stroke-width="0.3" x1="172.87174338648825" x2="177.1583165268699" y1="56.24261187166439" y2="53.66864786411523" /><path d="M 173.72905801456457 55.72781907015455 a86.0,86.0 0 0,1 12.242430191666344,42.057860355516425" fill="none" id="id3" stroke="none" /><text fill="#e1ed5e" style="font-size:6.75px; font-family:Arial;" text-anchor="middle"><textPath startOffset="22.145653131862474" xlink:href="#id3">March</textPath></text><line stroke="#e1ed5e" stroke-width="0.3" x1="184.99686870605535" x2="189.99668451229388" y1="99.2704041080226" y2="99.22748670261217" /><path d="M 185.99683186730306 99.26182062694052 a86.0,86.0 0 0,1 -10.086455211305974,41.156179273409016" fill="none" id="id4" stroke="none" /><text fill="#e1ed5e" style="font-size:6.75px; font-family:Arial;" text-anchor="middle"><textPath startOffset="21.40746469413373" xlink:href="#id4">April</textPath></text><line stroke="#e1ed5e" stroke-width="0.3" x1="174.33088141563837" x2="178.70328620479359" y1="141.23008692659167" y2="143.65538615756765" /><path d="M 175.20536237346943 141.71514677278685 a86.0,86.0 0 0,1 -30.301960400862466,31.631185727798858" fill="none" id="id5" stroke="none" /><text fill="#e1ed5e" style="font-size:6.75px; font-family:Arial;" text-anchor="middle"><textPath startOffset="22.145653131862474" xlink:href="#id5">May</textPath></text><line stroke="#e1ed5e" stroke-width="0.3" x1="143.1302829299769" x2="145.66735839644613" y1="173.24464959558577" y2="177.55315839532614" /><path d="M 143.63769802327073 174.10635135553383 a86.0,86.0 0 0,1 -40.68552437913181,11.842963189579606" fill="none" id="id6" stroke="none" /><text fill="#e1ed5e" style="font-size:6.75px; font-family:Arial;" text-anchor="middle"><textPath startOffset="21.407464694133747" xlink:href="#id6">June</textPath></text><line stroke="#e1ed5e" stroke-width="0.3" x1="101.45913802915013" x2="101.54496967792366" y1="184.9874750549273" y2="189.98673829345242" /><path d="M 101.47630435890484 185.9873277026323 a86.0,86.0 0 0,1 -42.54439059252881,-10.42667462771756" fill="none" id="id7" stroke="none" /><text fill="#e1ed5e" style="font-size:6.75px; font-family:Arial;" text-anchor="middle"><textPath startOffset="22.145653131862474" xlink:href="#id7">July</textPath></text><line stroke="#e1ed5e" stroke-width="0.3" x1="58.13341422392154" x2="55.670673884152215" y1="173.97424548756322" y2="178.32567169271397" /><path d="M 57.64086615596767 174.84453072859336 a86.0,86.0 0 0,1 -31.369924170532244,-30.572349798747897" fill="none" id="id8" stroke="none" /><text fill="#e1ed5e" style="font-size:6.75px; font-family:Arial;" text-anchor="middle"><textPath startOffset="22.145653131862474" xlink:href="#id8">August</textPath></text><line stroke="#e1ed5e" stroke-width="0.3" x1="26.387840678322732" x2="22.057713659400548" y1="142.50000000000003" y2="145.00000000000006" /><path d="M 25.521815274538298 143.00000000000003 a86.0,86.0 0 0,1 -11.493303480769221,-40.785679425670985" fill="none" id="id9" stroke="none" /><text fill="#e1ed5e" style="font-size:6.75px; font-family:Arial;" text-anchor="middle"><textPath startOffset="21.40746469413373" xlink:href="#id9">September</textPath></text><line stroke="#e1ed5e" stroke-width="0.3" x1="15.003131293944662" x2="10.003315487706104" y1="100.72959589197737" y2="100.7725132973878" /><path d="M 14.003168132696942 100.73817937305945 a86.0,86.0 0 0,1 10.791469493833615,-42.45332614584628" fill="none" id="id10" stroke="none" /><text fill="#e1ed5e" style="font-size:6.75px; font-family:Arial;" text-anchor="middle"><textPath startOffset="22.145653131862435" xlink:href="#id10">October</textPath></text><path d="M 80.83023694016515 91.42560881287825 l -57.50928917950456 -25.72317356136523 a84.0,84.0 0 0,0 0.600062140579813,-1.3112440711413145 l 57.05924257406971 26.706606614721213" fill="#4dd2ff" stroke="none" /><line stroke="#e1ed5e" stroke-width="0.3" x1="26.387840678322718" x2="22.05771365940052" y1="57.49999999999999" y2="54.99999999999999" /><path d="M 25.521815274538284 56.99999999999999 a86.0,86.0 0 0,1 29.574782752854787,-30.34633250058573" fill="none" id="id11" stroke="none" /><text fill="#e1ed5e" style="font-size:6.75px; font-family:Arial;" text-anchor="middle"><textPath startOffset="21.40746469413373" xlink:href="#id11">November</textPath></text><path d="M 82.37810715431573 88.57770195909679 l -6.224813888592366 -4.034849156517769 a28.418107283092134,28.418107283092134 0 0,0 0.26885635282282444,-0.40708278525111385 l 6.154633096848815 4.141111820107944" fill="#ff1702" stroke="none" /><path d="M 82.576782715395 88.27688183743585 l -40.52547600555071 -27.267348851064956 a69.84488221750708,69.84488221750708 0 0,0 0.6778620869930265,-0.9890210430767244 l 40.05142418174236 27.959004629211716" fill="#3aff92" stroke="none" /><path d="M 82.78059297857968 87.97951657250589 l -10.182038115681062 -7.107853381675988 a33.41754725719152,33.41754725719152 0 0,0 0.33240100315183074,-0.46756363865112743 l 10.058522013999257 7.281594247036636" fill="#ff6409" stroke="none" /><path d="M 82.98947788004972 87.6856937992154 l -11.289979215726195 -8.173074293815539 a34.93781812565216,34.93781812565216 0 0,0 0.3558632732011832,-0.4827968756179144 l 11.148013922941193 8.365677478702317" fill="#ff7a0b" stroke="none" /><path d="M 83.42222388311158 87.10902102172516 l -6.69823891741305 -5.2085910961162805 a29.485035403655576,29.485035403655576 0 0,0 0.3141329625485612,-0.39689673626585326 l 6.6078395242229275 5.322807776296817" fill="#ff2803" stroke="none" /><path d="M 83.64595745247003 86.82634096563983 l -8.245048921928975 -6.641627775116446 a31.58735336277204,31.58735336277204 0 0,0 0.34378048013785284,-0.41935628784401346 l 8.129821622552493 6.782186344658952" fill="#ff4806" stroke="none" /><path d="M 83.8745106332314 86.54754324733833 l -7.697556394732529 -6.421575317565964 a31.02442038270842,31.02442038270842 0 0,0 0.34467456853936007,-0.40602577506749105 l 7.586187262686054 6.552767875083011" fill="#ff4006" stroke="none" /><path d="M 84.10781606972428 86.27271002978789 l -4.496915050953723 -3.8843281166820707 a26.942242833605928,26.942242833605928 0 0,0 0.30533122412091,-0.34741088416985877 l 4.42957276287422 3.9609512786632273" fill="#ff0000" stroke="none" /><path d="M 84.34580500576568 86.00192230759919 l -19.39500659066886 -17.34313448892158 a47.01827424240335,47.01827424240335 0 0,0 0.5431781635073681,-0.5970479525035286 l 19.094430726319626 17.67352001698277" fill="#deff1b" stroke="none" /><path d="M 85.08716467003674 85.21462403516908 l -19.128899255690424 -18.965405372678664 a47.93698920971649,47.93698920971649 0 0,0 0.5843931696347353,-0.5793983862323062 l 18.80051416592571 19.290983769139643" fill="#d2ff1c" stroke="none" /><path d="M 85.60350026404147 84.71141617570332 l -5.897637718011473 -6.263086880204693 a29.6028127912854,29.6028127912854 0 0,0 0.37295347380669563,-0.34520016748340987 l 5.789254472890824 6.363404793820468" fill="#ff2a04" stroke="none" /><path d="M 85.86807049272753 84.46653392183569 l -12.259172898721012 -13.474978506695603 a39.21708994094952,39.21708994094952 0 0,0 0.5018573149212237,-0.4487639056083277 l 12.026050556976395 13.683437942187332" fill="#ffb711" stroke="none" /><path d="M 86.13680546590413 84.22622945171909 l -11.819419139449696 -13.44832931984809 a38.904084179009985,38.904084179009985 0 0,0 0.5054205945270207,-0.4365702718033582 l 11.586819065159828 13.64924372411616" fill="#ffb310" stroke="none" /><path d="M 86.40962598614128 83.9905735841838 l -5.017784806122753 -5.910937884572178 a28.753537968942112,28.753537968942112 0 0,0 0.3790341568311062,-0.3162037744454417 l 4.915576315129738 5.996203842929502" fill="#ff1d02" stroke="none" /><path d="M 86.96720088162412 83.53348406188908 l -17.93418670562827 -22.65925903890448 a49.897700133133576,49.897700133133576 0 0,0 0.6762090115934497,-0.5258242174287089 l 17.542567749399577 22.963784307953993" fill="#baff1f" stroke="none" /><path d="M 87.25179093698888 83.31218511350988 l -16.275920738226827 -21.305702710413563 a47.811164910566006,47.811164910566006 0 0,0 0.6564860237455631,-0.4926393509995019 l 15.90778172557051 21.581961088677065" fill="#d4ff1c" stroke="none" /><path d="M 87.83215693770416 82.88440491214696 l -11.77367204647792 -16.561144190716437 a41.319715804206425,41.319715804206425 0 0,0 0.5816338487156364,-0.40602559836461116 l 11.487643106588518 16.760814604886175" fill="#ffd513" stroke="none" /><path d="M 88.12776184653039 82.6780497279521 l -13.039609525379648 -19.02517999098077 a44.06488435400418,44.06488435400418 0 0,0 0.6276176416599785,-0.42228915899424363 l 12.71109559562268 19.246218824032123" fill="#fff917" stroke="none" /><path d="M 89.03521579738668 82.08984904055464 l -11.432992025306717 -18.67493325063111 a42.89672209638361,42.89672209638361 0 0,0 0.6313319833833849,-0.3790967163804806 l 11.110727285365899 18.868443967547513" fill="#ffea16" stroke="none" /><line stroke="#e1ed5e" stroke-width="0.3" x1="56.869717070023135" x2="54.33264160355391" y1="26.7553504044142" y2="22.446841604673864" /><path d="M 56.362301976729285 25.89364864446614 a86.0,86.0 0 0,1 42.16139366436587,-11.88097634709845" fill="none" id="id12" stroke="none" /><text fill="#e1ed5e" style="font-size:6.75px; font-family:Arial;" text-anchor="middle"><textPath startOffset="22.145653131862474" xlink:href="#id12">December</textPath></text><path d="M 89.97174638481275 81.54914285379989 l -6.305608234630985 -11.601608936264112 a34.20446989161812,34.20446989161812 0 0,0 0.5182973747430806,-0.2759641588349575 l 6.105522044101343 11.708143562821645" fill="#ff6f0a" stroke="none" /><path d="M 90.61103034731259 81.2157712731953 l -7.778622842474887 -15.562456377817075 a38.39819018854925,38.39819018854925 0 0,0 0.5921362066403841,-0.28964349099152537 l 7.51032638657245 15.693693618905813" fill="#ffac0f" stroke="none" /><path d="M 91.5904679813234 80.7573450057729 l -23.281067358636466 -53.27163819397686 a79.13669695835276,79.13669695835276 0 0,0 1.2494739513455524,-0.5333261315156409 l 22.363158332120484 53.66343897515191" fill="#46fffa" stroke="none" /><path d="M 93.61358852112211 79.99465700312896 l -5.10392346842787 -15.987967570423358 a37.78288240453581,37.78288240453581 0 0,0 0.6195661653862905,-0.19194318178172695 l 4.828716670169963 16.073227340011726" fill="#ffa30f" stroke="none" /><path d="M 96.05791012581881 79.37332000966035 l -2.978400059889377 -15.584247665410523 a36.866305247712916,36.866305247712916 0 0,0 0.6226284749366118,-0.11346364897921542 l 2.7104368514017265 15.6330794883211" fill="#ff960d" stroke="none" /></svg>