<?xml version="1.0" encoding="utf-8" ?>
<svg baseProfile="full" height="200mm" version="1.1" viewBox="0,0,200,200" width="200mm" xmlns="http://www.w3.org/2000/svg" xmlns:ev="http://www.w3.org/2001/xml-events" xmlns:xlink="http://www.w3.org/1999/xlink"><defs /><rect fill="#1a1a1a" height="200" width="200" x="0" y="0" /><text alignment-baseline="middle" fill="#e1ed5e" style="dominant-baseline: central; font-size:9.0px; font-family:Arial;" text-anchor="middle" x="100.0" y="100.0">2025</text><line stroke="#e1ed5e" stroke-width="0.3" x1="100.0" x2="100.0" y1="15.0" y2="10.0" /><path d="M 100.0 14.0 a86.0,86.0 0 0,1 42.46469731375804,11.215312516191453" fill="none" id="id25" stroke="none" /><text fill="#e1ed5e" style="font-size:6.75px; font-family:Arial;" text-anchor="middle"><textPath startOffset="22.20632615414155" xlink:href="#id25">January</textPath></text><path d="M 100.0 79.0 l 0.0 -6.412420416004153 a27.412420416004153,27.412420416004153 0 0,0 0.47185975571415345,0.0040614458888731855 l -0.1103792764416251 6.4114703467238385" fill="red" stroke="none" /><path d="M 107.08798089147638 80.2323363322302 l 17.920525984661722 -49.97853914086028 a74.0942522898801,74.0942522898801 0 0,0 1.1968609493044324,0.4408139883538744 l -18.778169259738732 49.66266188470008" fill="red" stroke="none" /><path d="M 108.43124777332544 80.76684994638697 l 3.763456179419989 -8.585101442278296 a30.373770276074797,30.373770276074797 0 0,0 0.47703869364912715,0.21403335649620742 l -3.910676991535896 8.519047755265557" fill="red" stroke="none" /><path d="M 108.76106565485865 80.91482961587045 l 17.673254090964804 -38.49954775547449 a63.36223657386216,63.36223657386216 0 0,0 0.9873097327503433,0.463555157904455 l -18.333342035014745 38.18962761493003" fill="red" stroke="none" /><path d="M 109.41281617654863 81.2277094730956 l 7.680903417278758 -15.318279647007703 a38.13610132584115,38.13610132584115 0 0,0 0.5842805069448546,0.29929116923516574 l -7.943444411812368 15.183795952460036" fill="red" stroke="none" /><path d="M 110.05341064243156 81.56283822128135 l 12.863350862371822 -23.59037040275598 a47.86952495202897,47.86952495202897 0 0,0 0.7200395142814807,0.40070121012740284 l -13.26751446572534 23.365453795068397" fill="red" stroke="none" /><path d="M 110.36928655335952 81.73862282372117 l 8.417048857049666 -14.823286356181512 a38.04630546069494,38.04630546069494 0 0,0 0.5667146983679809,0.3282777321974371 l -8.670960287882977 14.676204466594026" fill="red" stroke="none" /><line stroke="#e1ed5e" stroke-width="0.3" x1="143.23703022742887" x2="145.7803849466894" y1="26.81831364943548" y2="22.513508569990506" /><path d="M 143.74570117128098 25.957352633546492 a86.0,86.0 0 0,1 28.547481713284135,27.462654790039103" fill="none" id="id26" stroke="none" /><text fill="#e1ed5e" style="font-size:6.75px; font-family:Arial;" text-anchor="middle"><textPath startOffset="19.985693538727396" xlink:href="#id26">February</textPath></text><path d="M 110.68208982089419 81.91981866633111 l 7.00689751453009 -11.859662273325931 a34.77491205113406,34.77491205113406 0 0,0 0.5127443769036442,0.3089227499484544 l -7.210003957651371 11.73729291391886" fill="red" stroke="none" /><path d="M 111.2981086023043 82.29822771554956 l 26.832843417366895 -42.04145141795397 a70.87469421649735,70.87469421649735 0 0,0 1.0227318754788033,0.6652132609493383 l -27.55254231862998 41.5733392328451" fill="red" stroke="none" /><path d="M 111.60114157652 82.49532879139004 l 7.808828819494996 -11.7825457182793 a35.13528178479359,35.13528178479359 0 0,0 0.5012554992108333,0.33844995062348876 l -8.010489013112371 11.64638385535714" fill="red" stroke="none" /><path d="M 112.77801427241765 83.33499621200491 l 11.597749024286081 -15.12570946482245 a40.06029562322023,40.06029562322023 0 0,0 0.5436133373003298,0.4242988324147842 l -11.85639491674584 14.92383224318444" fill="red" stroke="none" /><path d="M 113.06298171725822 83.55741782278167 l 15.106887926368586 -19.015279325023698 a45.28577589101354,45.28577589101354 0 0,0 0.6061751283968576,0.4901514638424026 l -15.431966453329935 18.752421763917166" fill="red" stroke="none" /><path d="M 113.34407831869373 83.78471172551755 l 23.326801057061818 -28.34596699959918 a57.71012793083274,57.71012793083274 0 0,0 0.7616155712931153,0.6378311380667094 l -23.81127416531405 27.940234704138653" fill="red" stroke="none" /><path d="M 113.89432698308785 84.25364557470407 l 5.660510870514638 -6.415021792984704 a29.55534265355182,29.55534265355182 0 0,0 0.378574401506715,0.33988783557122987 l -5.770096259617342 6.316634948644177" fill="red" stroke="none" /><path d="M 116.15771136456269 86.58626213691792 l 14.922434211157535 -12.388240900661275 a40.394523850797206,40.394523850797206 0 0,0 0.4395337910363157,0.5388164567500683 l -15.13346649427026 12.129540274303105" fill="red" stroke="none" /><line stroke="#e1ed5e" stroke-width="0.3" x1="172.23445277983987" x2="176.4835382374775" y1="55.19839476539836" y2="52.563006222186495" /><path d="M 173.08426987136738 54.67131705675599 a86.0,86.0 0 0,1 12.851231095245387,41.99856678651699" fill="none" id="id27" stroke="none" /><text fill="#e1ed5e" style="font-size:6.75px; font-family:Arial;" text-anchor="middle"><textPath startOffset="22.20632615414155" xlink:href="#id27">March</textPath></text><line stroke="#e1ed5e" stroke-width="0.3" x1="184.98032266829074" x2="189.97916517819016" y1="98.17113171792111" y2="98.06355123074" /><path d="M 185.9800911702706 98.14961562048488 a86.0,86.0 0 0,1 -9.607161424134198,41.387399972396054" fill="none" id="id28" stroke="none" /><text fill="#e1ed5e" style="font-size:6.75px; font-family:Arial;" text-anchor="middle"><textPath startOffset="21.466115282336823" xlink:href="#id28">April</textPath></text><path d="M 120.95626037817324 101.35467743843564 l 14.821057529280752 0.9580789647748928 a35.85199183911013,35.85199183911013 0 0,0 -0.04511109538701766,0.6155050556237031 l -14.802369875229397 -1.213057156895366" fill="red" stroke="none" /><path d="M 120.8583938346157 102.4346265915055 l 7.191143398565153 0.8393622768988523 a28.239963564176826,28.239963564176826 0 0,0 -0.06051217806247413,0.48234159762100415 l -7.175629711255831 -0.9630216288072514" fill="red" stroke="none" /><path d="M 120.76222939487914 103.15116336523771 l 20.239279991863285 3.07179332412531 a41.47106174127708,41.47106174127708 0 0,0 -0.11319278589450922,0.7048515858160607 l -20.183405451607488 -3.419724139634576" fill="red" stroke="none" /><path d="M 120.64145759157962 103.86396538481128 l 12.925646060366121 2.419608631415206 a34.150164714066406,34.150164714066406 0 0,0 -0.11313472609760523,0.5768715309849379 l -12.882081401292853 -2.6417438894680894" fill="red" stroke="none" /><path d="M 118.81262510543309 109.33194174019688 l 6.413689265337749 3.18148978297413 a28.159419475870752,28.159419475870752 0 0,0 -0.21913570422824957,0.4323755338519832 l -6.35797489132323 -3.2914195285288073" fill="red" stroke="none" /><line stroke="#e1ed5e" stroke-width="0.3" x1="174.80103733775053" x2="179.2010983576182" y1="140.37084112569926" y2="142.7455964860345" /><path d="M 175.68104954172406 140.8457921977663 a86.0,86.0 0 0,1 -30.038265399797805,32.042727171017184" fill="none" id="id29" stroke="none" /><text fill="#e1ed5e" style="font-size:6.75px; font-family:Arial;" text-anchor="middle"><textPath startOffset="22.206326154141568" xlink:href="#id29">May</textPath></text><path d="M 118.30583269289576 110.29060199501025 l 31.840347071789314 17.89901309575131 a57.52646125008388,57.52646125008388 0 0,0 -0.49266758210690825,0.8590074564774745 l -31.527527493530023 -18.4444403980871" fill="red" stroke="none" /><path d="M 118.12598468904814 110.60418214915192 l 10.98361771813013 6.425707896028282 a33.725155407424396,33.725155407424396 0 0,0 -0.2974544643573497,0.49855079181174106 l -10.871382378074554 -6.613820781726127" fill="red" stroke="none" /><path d="M 116.71984013943494 112.70617746262583 l 16.982388889357992 12.90570036363998 a42.32975935788885,42.32975935788885 0 0,0 -0.4458597237506993,0.5763337954433758 l -16.757722348389223 -13.196112153196609" fill="red" stroke="none" /><path d="M 116.27256486870786 113.27417163493432 l 24.906988122057758 20.31761052477024 a53.14285853418424,53.14285853418424 0 0,0 -0.5843285053635565,0.7038613269561305 l -24.55356361680066 -20.743333108840144" fill="red" stroke="none" /><path d="M 112.92097659922987 116.55440617244103 l 38.762929797689644 49.6632185173231 a84.0,84.0 0 0,0 -1.147485086026025,0.8798426326905142 l -37.90231598317012 -50.32310049184099" fill="red" stroke="none" /><line stroke="#e1ed5e" stroke-width="0.3" x1="143.8653032363475" x2="146.44561519142675" y1="172.8068346515853" y2="177.08958963109032" /><path d="M 144.38136562736335 173.6633856474863 a86.0,86.0 0 0,1 -40.68145358897372,12.25698825130547" fill="none" id="id30" stroke="none" /><text fill="#e1ed5e" style="font-size:6.75px; font-family:Arial;" text-anchor="middle"><textPath startOffset="21.466115282336833" xlink:href="#id30">June</textPath></text><line stroke="#e1ed5e" stroke-width="0.3" x1="102.19456741930631" x2="102.32365962044197" y1="184.97166512339345" y2="189.96999836594603" /><path d="M 102.22038585953345 185.97133177190398 a86.0,86.0 0 0,1 -42.740103519485714,-10.115201625700543" fill="none" id="id31" stroke="none" /><text fill="#e1ed5e" style="font-size:6.75px; font-family:Arial;" text-anchor="middle"><textPath startOffset="22.20632615414155" xlink:href="#id31">July</textPath></text><path d="M 96.22490169976321 120.6578951692458 l -6.672158472096671 36.511036086271616 a58.115676671317736,58.115676671317736 0 0,0 -0.9825213009237157,-0.18830254574243002 l 7.299647387592081 -36.390776342180715" fill="red" stroke="none" /><line stroke="#e1ed5e" stroke-width="0.3" x1="58.666819895761336" x2="56.23545636021788" y1="174.27360380694188" y2="178.64263932499728" /><path d="M 58.180547188652646 175.14741091055294 a86.0,86.0 0 0,1 -31.652253787137756,-30.449443065178592" fill="none" id="id32" stroke="none" /><text fill="#e1ed5e" style="font-size:6.75px; font-family:Arial;" text-anchor="middle"><textPath startOffset="22.20632615414155" xlink:href="#id32">August</textPath></text><line stroke="#e1ed5e" stroke-width="0.3" x1="26.63291911575756" x2="22.317208475507996" y1="142.92168965132927" y2="145.44649492493687" /><path d="M 25.769776987707644 143.4266507060508 a86.0,86.0 0 0,1 -11.730757126820373,-40.83630448921669" fill="none" id="id33" stroke="none" /><text fill="#e1ed5e" style="font-size:6.75px; font-family:Arial;" text-anchor="middle"><textPath startOffset="21.46611528233685" xlink:href="#id33">September</textPath></text><line stroke="#e1ed5e" stroke-width="0.3" x1="15.007084014347285" x2="10.007500721073583" y1="101.09737516637583" y2="101.16192664675087" /><path d="M 14.007167355692545 101.11028546245083 a86.0,86.0 0 0,1 10.666146001902534,-42.60595125391555" fill="none" id="id34" stroke="none" /><text fill="#e1ed5e" style="font-size:6.75px; font-family:Arial;" text-anchor="middle"><textPath startOffset="22.20632615414155" xlink:href="#id34">October</textPath></text><line stroke="#e1ed5e" stroke-width="0.3" x1="26.266209847984243" x2="21.928928074336255" y1="57.711370442889674" y2="55.22380399835377" /><path d="M 25.398753493254645 57.213857153982495 a86.0,86.0 0 0,1 29.58750427330803,-30.492523968695096" fill="none" id="id35" stroke="none" /><text fill="#e1ed5e" style="font-size:6.75px; font-family:Arial;" text-anchor="middle"><textPath startOffset="21.46611528233685" xlink:href="#id35">November</textPath></text><line stroke="#e1ed5e" stroke-width="0.3" x1="56.762969772571076" x2="54.21961505331055" y1="26.818313649435495" y2="22.513508569990535" /><path d="M 56.25429882871897 25.957352633546506 a86.0,86.0 0 0,1 42.265352541879196,-11.944610805530505" fill="none" id="id36" stroke="none" /><text fill="#e1ed5e" style="font-size:6.75px; font-family:Arial;" text-anchor="middle"><textPath startOffset="22.20632615414155" xlink:href="#id36">December</textPath></text></svg>