<?xml version="1.0" encoding="utf-8" ?>
<svg baseProfile="full" height="200mm" version="1.1" viewBox="0,0,200,200" width="200mm" xmlns="http://www.w3.org/2000/svg" xmlns:ev="http://www.w3.org/2001/xml-events" xmlns:xlink="http://www.w3.org/1999/xlink"><defs /><rect fill="#1a1a1a" height="200" width="200" x="0" y="0" /><text alignment-baseline="middle" fill="#e1ed5e" style="dominant-baseline: central; font-size:9.0px; font-family:Arial;" text-anchor="middle" x="100.0" y="100.0">2025</text><line stroke="#e1ed5e" stroke-width="0.3" x1="100.0" x2="100.0" y1="15.0" y2="10.0" /><path d="M 100.0 14.0 a86.0,86.0 0 0,1 42.46469731375804,11.215312516191453" fill="none" id="id13" stroke="none" /><text fill="#e1ed5e" style="font-size:6.75px; font-family:Arial;" text-anchor="middle"><textPath startOffset="22.20632615414155" xlink:href="#id13">January</textPath></text><path d="M 100.0 79.0 l 0.0 -7.608780023921003 a28.608780023921003,28.608780023921003 0 0,0 0.49245311973568096,0.004238699474563526 l -0.13097264046315257 7.607652701054999" fill="red" stroke="none" /><path d="M 107.08798089147638 80.2323363322302 l 21.26394267442914 -59.302991003309366 a84.0,84.0 0 0,0 1.3568706969096942,0.49974692877470117 l -22.28159569711141 58.92818080672834" fill="red" stroke="none" /><path d="M 108.43124777332544 80.76684994638697 l 4.465600871615451 -10.186816228441776 a32.12262630931281,32.12262630931281 0 0,0 0.5045055504105153,0.22635693448538508 l -4.640288540492747 10.10843896343986" fill="red" stroke="none" /><path d="M 108.76106565485865 80.91482961587045 l 20.970537482133494 -45.682374343506744 a71.26572159981242,71.26572159981242 0 0,0 1.110461756900738,0.5213766845314238 l -21.75377745033383 45.31463267633532" fill="red" stroke="none" /><path d="M 109.41281617654863 81.2277094730956 l 9.113922777302088 -18.17619753815474 a41.33316860050711,41.33316860050711 0 0,0 0.6332625481875674,0.3243816732324868 l -9.42544581307841 18.01662333960975" fill="red" stroke="none" /><path d="M 110.05341064243156 81.56283822128135 l 15.26325486052447 -27.991604953007297 a52.88254846750094,52.88254846750094 0 0,0 0.7954439604459101,0.44266370277924616 l -15.742822910042415 27.72472585266787" fill="red" stroke="none" /><path d="M 110.36928655335952 81.73862282372117 l 9.987410220959086 -17.58885378667311 a41.22661960018735,41.22661960018735 0 0,0 0.6140867295403591,0.35571867030551646 l -10.288693682964773 17.414330958977544" fill="red" stroke="none" /><line stroke="#e1ed5e" stroke-width="0.3" x1="143.23703022742887" x2="145.7803849466894" y1="26.81831364943548" y2="22.513508569990506" /><path d="M 143.74570117128098 25.957352633546492 a86.0,86.0 0 0,1 28.547481713284135,27.462654790039103" fill="none" id="id14" stroke="none" /><text fill="#e1ed5e" style="font-size:6.75px; font-family:Arial;" text-anchor="middle"><textPath startOffset="19.985693538727396" xlink:href="#id14">February</textPath></text><path d="M 110.68208982089419 81.91981866633111 l 8.314168189153202 -14.07230897876198 a37.34488521438043,37.34488521438043 0 0,0 0.550637766434298,0.33175309314864393 l -8.555168021805137 13.927109276154722" fill="red" stroke="none" /><path d="M 111.2981086023043 82.29822771554956 l 31.839023291346397 -49.88508784096639 a80.17977182321533,80.17977182321533 0 0,0 1.1570054632155578,0.7525485374761574 l -32.69299578034624 49.329640379330705" fill="red" stroke="none" /><path d="M 111.60114157652 82.49532879139004 l 9.265715108713431 -13.980804856217556 a37.7724888106529,37.7724888106529 0 0,0 0.5388790632501446,0.3638535490108027 l -9.50499886637012 13.819239394908085" fill="red" stroke="none" /><path d="M 112.77801427241765 83.33499621200491 l 13.761530806401213 -17.947699707326763 a43.61635812680518,43.61635812680518 0 0,0 0.5918686727927089,0.4619628871800347 l -14.068432034353352 17.708158430923504" fill="red" stroke="none" /><path d="M 113.06298171725822 83.55741782278167 l 17.92536665108332 -22.562943177652162 a49.81675162841451,49.81675162841451 0 0,0 0.6668247417763891,0.5391925666307552 l -18.3110947914242 22.251044513757275" fill="red" stroke="none" /><path d="M 113.34407831869373 83.78471172551755 l 27.678861707503536 -33.63444900259242 a64.55910404417308,64.55910404417308 0 0,0 0.852003290786416,0.7135282537306937 l -28.253722535249068 33.15301959146791" fill="red" stroke="none" /><path d="M 113.89432698308785 84.25364557470407 l 6.716587379278218 -7.61186673750499 a31.151505368811776,31.151505368811776 0 0,0 0.39901965066928063,0.3582437821379332 l -6.846618017543489 7.49512394659776" fill="red" stroke="none" /><line stroke="#e1ed5e" stroke-width="0.3" x1="172.23445277983987" x2="176.4835382374775" y1="55.19839476539836" y2="52.563006222186495" /><path d="M 173.08426987136738 54.67131705675599 a86.0,86.0 0 0,1 12.851231095245387,41.99856678651699" fill="none" id="id15" stroke="none" /><text fill="#e1ed5e" style="font-size:6.75px; font-family:Arial;" text-anchor="middle"><textPath startOffset="22.20632615414155" xlink:href="#id15">March</textPath></text><line stroke="#e1ed5e" stroke-width="0.3" x1="184.98032266829074" x2="189.97916517819016" y1="98.17113171792111" y2="98.06355123074" /><path d="M 185.9800911702706 98.14961562048488 a86.0,86.0 0 0,1 -9.607161424134198,41.387399972396054" fill="none" id="id16" stroke="none" /><text fill="#e1ed5e" style="font-size:6.75px; font-family:Arial;" text-anchor="middle"><textPath startOffset="21.466115282336823" xlink:href="#id16">April</textPath></text><line stroke="#e1ed5e" stroke-width="0.3" x1="174.80103733775053" x2="179.2010983576182" y1="140.37084112569926" y2="142.7455964860345" /><path d="M 175.68104954172406 140.8457921977663 a86.0,86.0 0 0,1 -30.038265399797805,32.042727171017184" fill="none" id="id17" stroke="none" /><text fill="#e1ed5e" style="font-size:6.75px; font-family:Arial;" text-anchor="middle"><textPath startOffset="22.206326154141568" xlink:href="#id17">May</textPath></text><line stroke="#e1ed5e" stroke-width="0.3" x1="143.8653032363475" x2="146.44561519142675" y1="172.8068346515853" y2="177.08958963109032" /><path d="M 144.38136562736335 173.6633856474863 a86.0,86.0 0 0,1 -40.68145358897372,12.25698825130547" fill="none" id="id18" stroke="none" /><text fill="#e1ed5e" style="font-size:6.75px; font-family:Arial;" text-anchor="middle"><textPath startOffset="21.466115282336833" xlink:href="#id18">June</textPath></text><line stroke="#e1ed5e" stroke-width="0.3" x1="102.19456741930631" x2="102.32365962044197" y1="184.97166512339345" y2="189.96999836594603" /><path d="M 102.22038585953345 185.97133177190398 a86.0,86.0 0 0,1 -42.740103519485714,-10.115201625700543" fill="none" id="id19" stroke="none" /><text fill="#e1ed5e" style="font-size:6.75px; font-family:Arial;" text-anchor="middle"><textPath startOffset="22.20632615414155" xlink:href="#id19">July</textPath></text><line stroke="#e1ed5e" stroke-width="0.3" x1="58.666819895761336" x2="56.23545636021788" y1="174.27360380694188" y2="178.64263932499728" /><path d="M 58.180547188652646 175.14741091055294 a86.0,86.0 0 0,1 -31.652253787137756,-30.449443065178592" fill="none" id="id20" stroke="none" /><text fill="#e1ed5e" style="font-size:6.75px; font-family:Arial;" text-anchor="middle"><textPath startOffset="22.20632615414155" xlink:href="#id20">August</textPath></text><line stroke="#e1ed5e" stroke-width="0.3" x1="26.63291911575756" x2="22.317208475507996" y1="142.92168965132927" y2="145.44649492493687" /><path d="M 25.769776987707644 143.4266507060508 a86.0,86.0 0 0,1 -11.730757126820373,-40.83630448921669" fill="none" id="id21" stroke="none" /><text fill="#e1ed5e" style="font-size:6.75px; font-family:Arial;" text-anchor="middle"><textPath startOffset="21.46611528233685" xlink:href="#id21">September</textPath></text><line stroke="#e1ed5e" stroke-width="0.3" x1="15.007084014347285" x2="10.007500721073583" y1="101.09737516637583" y2="101.16192664675087" /><path d="M 14.007167355692545 101.11028546245083 a86.0,86.0 0 0,1 10.666146001902534,-42.60595125391555" fill="none" id="id22" stroke="none" /><text fill="#e1ed5e" style="font-size:6.75px; font-family:Arial;" text-anchor="middle"><textPath startOffset="22.20632615414155" xlink:href="#id22">October</textPath></text><line stroke="#e1ed5e" stroke-width="0.3" x1="26.266209847984243" x2="21.928928074336255" y1="57.711370442889674" y2="55.22380399835377" /><path d="M 25.398753493254645 57.213857153982495 a86.0,86.0 0 0,1 29.58750427330803,-30.492523968695096" fill="none" id="id23" stroke="none" /><text fill="#e1ed5e" style="font-size:6.75px; font-family:Arial;" text-anchor="middle"><textPath startOffset="21.46611528233685" xlink:href="#id23">November</textPath></text><line stroke="#e1ed5e" stroke-width="0.3" x1="56.762969772571076" x2="54.21961505331055" y1="26.818313649435495" y2="22.513508569990535" /><path d="M 56.25429882871897 25.957352633546506 a86.0,86.0 0 0,1 42.265352541879196,-11.944610805530505" fill="none" id="id24" stroke="none" /><text fill="#e1ed5e" style="font-size:6.75px; font-family:Arial;" text-anchor="middle"><textPath startOffset="22.20632615414155" xlink:href="#id24">December</textPath></text></svg>