<?xml version="1.0" encoding="utf-8" ?>
<svg baseProfile="full" height="200mm" version="1.1" viewBox="0,0,200,200" width="200mm" xmlns="http://www.w3.org/2000/svg" xmlns:ev="http://www.w3.org/2001/xml-events" xmlns:xlink="http://www.w3.org/1999/xlink"><defs /><rect fill="#1a1a1a" height="200" width="200" x="0" y="0" /><text alignment-baseline="middle" fill="#e1ed5e" style="dominant-baseline: central; font-size:9.0px; font-family:Arial;" text-anchor="middle" x="100.0" y="100.0">2023</text><line stroke="#e1ed5e" stroke-width="0.3" x1="100.0" x2="100.0" y1="15.0" y2="10.0" /><path d="M 100.0 14.0 a86.0,86.0 0 0,1 42.46469731375804,11.215312516191453" fill="none" id="id1" stroke="none" /><text fill="#e1ed5e" style="font-size:6.75px; font-family:Arial;" text-anchor="middle"><textPath startOffset="22.20632615414155" xlink:href="#id1">January</textPath></text><line stroke="#e1ed5e" stroke-width="0.3" x1="143.23703022742887" x2="145.7803849466894" y1="26.81831364943548" y2="22.513508569990506" /><path d="M 143.74570117128098 25.957352633546492 a86.0,86.0 0 0,1 28.547481713284135,27.462654790039103" fill="none" id="id2" stroke="none" /><text fill="#e1ed5e" style="font-size:6.75px; font-family:Arial;" text-anchor="middle"><textPath startOffset="19.985693538727396" xlink:href="#id2">February</textPath></text><line stroke="#e1ed5e" stroke-width="0.3" x1="172.23445277983987" x2="176.4835382374775" y1="55.19839476539836" y2="52.563006222186495" /><path d="M 173.08426987136738 54.67131705675599 a86.0,86.0 0 0,1 12.851231095245387,41.99856678651699" fill="none" id="id3" stroke="none" /><text fill="#e1ed5e" style="font-size:6.75px; font-family:Arial;" text-anchor="middle"><textPath startOffset="22.20632615414155" xlink:href="#id3">March</textPath></text><line stroke="#e1ed5e" stroke-width="0.3" x1="184.98032266829074" x2="189.97916517819016" y1="98.17113171792111" y2="98.06355123074" /><path d="M 185.9800911702706 98.14961562048488 a86.0,86.0 0 0,1 -9.607161424134198,41.387399972396054" fill="none" id="id4" stroke="none" /><text fill="#e1ed5e" style="font-size:6.75px; font-family:Arial;" text-anchor="middle"><textPath startOffset="21.466115282336823" xlink:href="#id4">April</textPath></text><line stroke="#e1ed5e" stroke-width="0.3" x1="174.80103733775053" x2="179.2010983576182" y1="140.37084112569926" y2="142.7455964860345" /><path d="M 175.68104954172406 140.8457921977663 a86.0,86.0 0 0,1 -30.038265399797805,32.042727171017184" fill="none" id="id5" stroke="none" /><text fill="#e1ed5e" style="font-size:6.75px; font-family:Arial;" text-anchor="middle"><textPath startOffset="22.206326154141568" xlink:href="#id5">May</textPath></text><line stroke="#e1ed5e" stroke-width="0.3" x1="143.8653032363475" x2="146.44561519142675" y1="172.8068346515853" y2="177.08958963109032" /><path d="M 144.38136562736335 173.6633856474863 a86.0,86.0 0 0,1 -40.68145358897372,12.25698825130547" fill="none" id="id6" stroke="none" /><text fill="#e1ed5e" style="font-size:6.75px; font-family:Arial;" text-anchor="middle"><textPath startOffset="21.466115282336833" xlink:href="#id6">June</textPath></text><line stroke="#e1ed5e" stroke-width="0.3" x1="102.19456741930631" x2="102.32365962044197" y1="184.97166512339345" y2="189.96999836594603" /><path d="M 102.22038585953345 185.97133177190398 a86.0,86.0 0 0,1 -42.740103519485714,-10.115201625700543" fill="none" id="id7" stroke="none" /><text fill="#e1ed5e" style="font-size:6.75px; font-family:Arial;" text-anchor="middle"><textPath startOffset="22.20632615414155" xlink:href="#id7">July</textPath></text><line stroke="#e1ed5e" stroke-width="0.3" x1="58.666819895761336" x2="56.23545636021788" y1="174.27360380694188" y2="178.64263932499728" /><path d="M 58.180547188652646 175.14741091055294 a86.0,86.0 0 0,1 -31.652253787137756,-30.449443065178592" fill="none" id="id8" stroke="none" /><text fill="#e1ed5e" style="font-size:6.75px; font-family:Arial;" text-anchor="middle"><textPath startOffset="22.20632615414155" xlink:href="#id8">August</textPath></text><line stroke="#e1ed5e" stroke-width="0.3" x1="26.63291911575756" x2="22.317208475507996" y1="142.92168965132927" y2="145.44649492493687" /><path d="M 25.769776987707644 143.4266507060508 a86.0,86.0 0 0,1 -11.730757126820373,-40.83630448921669" fill="none" id="id9" stroke="none" /><text fill="#e1ed5e" style="font-size:6.75px; font-family:Arial;" text-anchor="middle"><textPath startOffset="21.46611528233685" xlink:href="#id9">September</textPath></text><line stroke="#e1ed5e" stroke-width="0.3" x1="15.007084014347285" x2="10.007500721073583" y1="101.09737516637583" y2="101.16192664675087" /><path d="M 14.007167355692545 101.11028546245083 a86.0,86.0 0 0,1 10.666146001902534,-42.60595125391555" fill="none" id="id10" stroke="none" /><text fill="#e1ed5e" style="font-size:6.75px; font-family:Arial;" text-anchor="middle"><textPath startOffset="22.20632615414155" xlink:href="#id10">October</textPath></text><path d="M 81.26839172434947 90.50648371742162 l -33.719659625702086 -17.089730523338428 a58.803099537386196,58.803099537386196 0 0,0 0.4653581163838309,-0.8989237603400769 l 33.42049207615814 17.66762700593884" fill="red" stroke="none" /><path d="M 81.6062741919709 89.86733742301443 l -14.62734866940857 -8.057855706337566 a37.69995112809033,37.69995112809033 0 0,0 0.31801229838047673,-0.5657083940530468 l 14.486478729735664 8.308447610325397" fill="red" stroke="none" /><line stroke="#e1ed5e" stroke-width="0.3" x1="26.266209847984243" x2="21.928928074336255" y1="57.711370442889674" y2="55.22380399835377" /><path d="M 25.398753493254645 57.213857153982495 a86.0,86.0 0 0,1 29.58750427330803,-30.492523968695096" fill="none" id="id11" stroke="none" /><text fill="#e1ed5e" style="font-size:6.75px; font-family:Arial;" text-anchor="middle"><textPath startOffset="21.46611528233685" xlink:href="#id11">November</textPath></text><path d="M 81.78341655067845 89.55222093294921 l -20.298288763821986 -11.641702025717118 a44.399781041605664,44.399781041605664 0 0,0 0.38594049927528534,-0.6596974177123968 l 20.094888590076376 11.989378855783407" fill="red" stroke="none" /><path d="M 81.96595687620814 89.24020034530311 l -20.858820786701525 -12.445170013042812 a45.28935283751446,45.28935283751446 0 0,0 0.4051978049528695,-0.6660386517533377 l 20.641507183462437 12.802376438003225" fill="red" stroke="none" /><path d="M 82.34701348167596 88.62581576622439 l -14.053122168042542 -9.054717196614458 a37.71759989294499,37.71759989294499 0 0,0 0.356347558332573,-0.5427417789412313 l 13.895177974352048 9.295277039533357" fill="red" stroke="none" /><path d="M 82.54541684631803 88.32363383020206 l -25.05507428980758 -16.76076817437893 a51.14432114782236,51.14432114782236 0 0,0 0.49579678598464183,-0.7275206053223893 l 24.762853038154198 17.189566802971736" fill="red" stroke="none" /><path d="M 82.95767976084542 87.72973835380427 l -22.109222598277704 -15.918369228362097 a48.24357177006456,48.24357177006456 0 0,0 0.4910216663402203,-0.6697530010668189 l 21.83193831942385 16.296584673100416" fill="red" stroke="none" /><path d="M 83.17141714833178 87.43820079747576 l -22.600384193896325 -16.870195823737173 a49.20249763483649,49.20249763483649 0 0,0 0.5124652397050057,-0.6743441849516059 l 22.30664301396721 17.256724784569805" fill="red" stroke="none" /><path d="M 84.07557802195018 86.31012108654704 l -44.39972508141629 -38.16947710836956 a79.55121322425092,79.55121322425092 0 0,0 0.9016112385535985,-1.0306975049286373 l 43.73612197928485 38.92809016950115" fill="red" stroke="none" /><path d="M 84.31358615837235 86.03803664274999 l -11.729886979023002 -10.44038834110027 a36.70324671058937,36.70324671058937 0 0,0 0.4241083916363209,-0.468311078774298 l 11.548434946770637 10.640752207144123" fill="red" stroke="none" /><path d="M 84.5562425177563 85.77008943001954 l -17.17905355704887 -15.828816016747954 a44.35960825031126,44.35960825031126 0 0,0 0.5222449878126624,-0.5570945405198022 l 16.904041247265752 16.122179974145805" fill="red" stroke="none" /><path d="M 85.57189188830299 84.74124197986013 l -43.28432433509105 -45.776274060419595 a84.0,84.0 0 0,0 1.0591684648205755,-0.98438165570141 l 42.48994798647562 46.514560302195655" fill="red" stroke="none" /><path d="M 85.83668400450813 84.49514656593479 l -12.21529247298598 -13.372314753703991 a39.11165845726772,39.11165845726772 0 0,0 0.5009812562811485,-0.449785918386075 l 11.983300229108862 13.580599680859345" fill="red" stroke="none" /><path d="M 86.65592168130627 83.78471172551755 l -25.588136945238393 -31.09386853588193 a61.26886406213841,61.26886406213841 0 0,0 0.8201175934133677,-0.6631447251846031 l 25.049115953260525 31.52971935833067" fill="red" stroke="none" /><path d="M 86.93701828274178 83.55741782278169 l -15.570652926740944 -19.59902768313901 a46.03132275149429,46.03132275149429 0 0,0 0.6246394489107201,-0.4875409977415771 l 15.230980922670797 19.864147070103808" fill="red" stroke="none" /><path d="M 88.39885842347998 82.49532879139004 l -8.577984967445405 -12.94310611564593 a36.52758262005359,36.52758262005359 0 0,0 0.5270981905840486,-0.3428393253459064 l 8.353919751077068 13.088844365151372" fill="red" stroke="none" /><path d="M 89.00827224532344 82.1063720568725 l -18.14380952651966 -29.53662830671778 a55.66425011252699,55.66425011252699 0 0,0 0.8207506376374689,-0.4944930757350165 l 17.632696822664542 29.84456799191142" fill="red" stroke="none" /><line stroke="#e1ed5e" stroke-width="0.3" x1="56.762969772571076" x2="54.21961505331055" y1="26.818313649435495" y2="22.513508569990535" /><path d="M 56.25429882871897 25.957352633546506 a86.0,86.0 0 0,1 42.265352541879196,-11.944610805530505" fill="none" id="id12" stroke="none" /><text fill="#e1ed5e" style="font-size:6.75px; font-family:Arial;" text-anchor="middle"><textPath startOffset="22.20632615414155" xlink:href="#id12">December</textPath></text><path d="M 89.63071344664047 81.73862282372117 l -21.668360177740283 -38.160204750921395 a64.88301561452363,64.88301561452363 0 0,0 0.9759515076662068,-0.5431159573759701 l 21.00828458100203 38.52753610585755" fill="red" stroke="none" /><path d="M 90.91171255644093 81.06846463323043 l -9.813867207805762 -20.442968522196846 a43.67657274748493,43.67657274748493 0 0,0 0.6805679170826092,-0.3195357624897533 l 9.460521079423545 20.608869267326607" fill="red" stroke="none" /></svg>